PathFileType	4	(X/Y/Z)	33_2_81_p0_0-532_filt_butterworth.trc
DataRate	CameraRate	NumFrames	NumMarkers	Units	OrigDataRate	OrigDataStartFrame	OrigNumFrames
60.0	60.0	6	27	m	60.0	465	532
Frame#	Time	RHip			RKnee			RAnkle			RBigToe			RSmallToe			RHeel			LHip			LKnee			LAnkle			LBigToe			LSmallToe			LHeel			Neck			Head			Nose			RShoulder			RElbow			RWrist			RThumb			RIndex			RPinky			LShoulder			LElbow			LWrist			LThumb			LIndex			LPinky			
		X1	Y1	Z1	X2	Y2	Z2	X3	Y3	Z3	X4	Y4	Z4	X5	Y5	Z5	X6	Y6	Z6	X7	Y7	Z7	X8	Y8	Z8	X9	Y9	Z9	X10	Y10	Z10	X11	Y11	Z11	X12	Y12	Z12	X13	Y13	Z13	X14	Y14	Z14	X15	Y15	Z15	X16	Y16	Z16	X17	Y17	Z17	X18	Y18	Z18	X19	Y19	Z19	X20	Y20	Z20	X21	Y21	Z21	X22	Y22	Z22	X23	Y23	Z23	X24	Y24	Z24	X25	Y25	Z25	X26	Y26	Z26	X27	Y27	Z27	
465	7.75	0.3374171860476292	0.32155056114223235	0.10707496724095428	0.3145080557184338	0.5515354808742926	0.5118692000425642	0.27873633365463346	0.7599005187315583	0.9114219128768407	0.2539479942721239	0.6153200993782059	0.9987680024412542	0.3285743943357452	0.6237784762721224	0.9956995861273842	0.23892129606175058	0.9037521062505212	0.9649030037472381	0.15334310918611269	0.26183656115235765	0.11737958313620393	0.14303348488256312	0.4573181518033066	0.5194220213642603	0.0876857054448933	0.7595789512466858	0.9231979891510101	0.10822857190144729	0.5865794641866184	0.9934710598029497	0.05520336517158578	0.6364556742017788	0.9861324743393515	0.08774290439002196	0.8253427105771743	0.9613094435083979	0.30007883653856154	0.027990351819137012	-0.3715166688195725	0.32004774950952186	-0.1815939665494355	-0.5214405280011506	0.28459165024921645	-0.14662781097597755	-0.3940260328029169	0.432825353797492	0.1500900665844362	-0.33829608363924163	0.4595018020363607	0.5145639702303043	-0.2597980161185224	0.45741050398826233	0.5034762845346572	-0.0678228262811485	0.4419740756997288	0.3890901338823934	0.016444413441543505	0.43854707221541156	0.42336750710760995	0.009511545920574837	0.4133070120426757	0.6298045892153388	0.003251517165504112	0.14312772890926456	0.043866958096200906	-0.3101969510563176	-0.032992185968896054	0.20292559174248034	-0.1644076648832355	-0.049368340988318535	0.22931094218310225	0.05462785887911263	-0.009813886707004478	0.3378383032112172	0.07712830045879517	-0.033769337907688365	0.3551325296350679	0.11643790155343005	-0.04067271927633296	0.34281531883622635	0.1286714106996446
466	7.766666666666667	0.336945282342682	0.32173925410668497	0.10699920650820635	0.3160013424709064	0.5469238439271983	0.514344919661439	0.2757144135904351	0.7598046464450084	0.9117835680502325	0.2551784018304321	0.6112772879458467	0.9988670310528928	0.32856985951254314	0.6237311083608712	0.9955977791937061	0.23592128493145673	0.9030632203308556	0.9654362895452467	0.15336189455455196	0.2616926993967965	0.1167043067604536	0.14432338636844452	0.4542850487083491	0.5214145753618159	0.08771755072489287	0.7608106179404357	0.9237215875381913	0.1069715403326367	0.5847184616572397	0.9931374304387617	0.057152727806777104	0.6318552998364079	0.9856470723285267	0.08812159381263364	0.8253607531111076	0.9611367668658888	0.3040971825441535	0.029034917552613605	-0.3724268372811171	0.32509736400915984	-0.18411838287329202	-0.520738258304299	0.29503735105893353	-0.13633046907550062	-0.39929939237337025	0.43285557509368766	0.1532447655266994	-0.33911659306539454	0.4599147967717233	0.48978350686623057	-0.24588556584999993	0.4464079971859829	0.5306858184520208	-0.06031589668529684	0.41526241166301436	0.429253725604962	0.024844840748207295	0.40987762465381794	0.4483892985455551	0.021514276079284852	0.39182781369105313	0.6600996795676328	0.007111905429438609	0.1450684054619821	0.04103986048638854	-0.3068163270754352	-0.025653574723316183	0.19867380822320732	-0.1531572928019767	-0.04638307147486777	0.23701781971996275	0.06893880101868971	-0.013057639608932943	0.3447336009203966	0.10211824923369953	-0.03579882151109742	0.3584706371536173	0.13987484489714966	-0.044790763217407534	0.34307344453871763	0.14663165291586663
467	7.783333333333333	0.33644375215909683	0.3216893285881649	0.1069995194010205	0.31720368611211275	0.5445774706863303	0.5175346432983738	0.274024317002234	0.7595784882417453	0.911908655522875	0.2567618713722033	0.6078081599405306	1.0005080582870014	0.3285948651367627	0.6236699395465082	0.9955536057531957	0.23431037135900723	0.9007739746059921	0.965960081151966	0.15330387488101158	0.26155183638062574	0.11638215082858783	0.14584942623892594	0.45068468100921993	0.5234751974942277	0.08794987775268753	0.7625123122181696	0.9250489604826128	0.10578462491856433	0.5812235067053545	0.9928786806503214	0.059526697676480264	0.6268736921701965	0.9855280190858547	0.0882547980248614	0.8265231113169873	0.961479014708429	0.3079696771827116	0.03164449781674341	-0.3730587000495097	0.329900630880453	-0.18725777855696807	-0.5194831238648567	0.30516547264246335	-0.1305300941711465	-0.40155955402892496	0.43349323503871673	0.15452837844541062	-0.3387225682416311	0.46210532091637657	0.4605546400669013	-0.23544234509179968	0.44608876456081525	0.5273142881193672	-0.04521477785641362	0.3998175855492282	0.4438168628188707	0.036462563061557735	0.3967720779407361	0.46040868757161657	0.03874188463455035	0.38819565369568354	0.627474394596693	0.023087414428648728	0.14653065526161319	0.03903173271509432	-0.30382325514474645	-0.013741552955858449	0.19142952908773736	-0.13912065959400918	-0.04285658142549787	0.2443911274412948	0.08001885088316309	-0.016620400526256754	0.349505536807838	0.12810774031738273	-0.03704630855594937	0.36092865165444943	0.15794754485171622	-0.049120631835835496	0.34111087172759863	0.15979597721830213
468	7.8	0.33714295438492714	0.32195083152490633	0.10714573032578795	0.3180393222400102	0.5442730006834263	0.5203232101073019	0.273578151813117	0.7592429522086268	0.9118451663856297	0.2584320583181376	0.6060509226800749	1.0033154058861913	0.3287341501800313	0.6233996718314153	0.9953175060351003	0.2335584827108142	0.8988512856841652	0.966191047862095	0.15326538176374999	0.2617321540628234	0.11643316775714654	0.14658377309905535	0.4486657328702141	0.5251204821891482	0.08866777216507754	0.7643302575389112	0.9268322640039198	0.1057021858763241	0.5760966900786364	0.9923790294693657	0.06274865652002697	0.6199788058786069	0.9856019374482661	0.08735302840443827	0.8297618977254897	0.9625284442441882	0.309976089090138	0.037614410514371796	-0.3741635713934837	0.3343365661213804	-0.18967078774233187	-0.5181694289874322	0.31435705924450763	-0.1308758898695022	-0.40052412490897144	0.4350445440744926	0.1562800000869523	-0.3386381086472856	0.46495036997591804	0.4250893941440016	-0.2247088682064649	0.4547138203907424	0.5004140459530678	-0.024179030054363414	0.39647694258637173	0.44276159832378725	0.05353669757091493	0.3967262648495832	0.46641811373665815	0.06265684015186143	0.39395473351115756	0.5701577094693784	0.05103197077991572	0.14722328341782012	0.038393927901803036	-0.30221257858237743	0.004476618922160346	0.17895531317746294	-0.12314110405124329	-0.03894711802990393	0.24913511338893557	0.08911475017550521	-0.020368734043271337	0.3558813084037316	0.148393578586904	-0.03971352199225034	0.36720038618544615	0.17163473251022734	-0.053228860754607026	0.34533192008364166	0.17053469499009405
469	7.816666666666666	0.3394961525446874	0.3223631144443018	0.10738783733161791	0.3191567804312326	0.5446427405054702	0.5219664142857013	0.27367534908837443	0.7593618317539733	0.9117477886164814	0.2605088145334387	0.605523607636776	1.0056496049303194	0.3290633250954642	0.622718560829039	0.994508620378761	0.2328785252509456	0.8982229179625749	0.9657271588327893	0.15333739855361744	0.26185448959267094	0.11680968282965538	0.1463823497149903	0.4485596087795914	0.5263069449784017	0.09002513264169618	0.7656711356256635	0.9281987085487167	0.10783549327634032	0.5695096107005762	0.9912832580366168	0.0672732205102519	0.6092428536751303	0.9854726051976337	0.08505400641675964	0.8359384444724054	0.9637606123569233	0.3104119808465036	0.044667719688295804	-0.37528108110844044	0.3379892937114642	-0.190836184016164	-0.5174355912966988	0.3221435534690391	-0.13607624768396281	-0.3970583422235997	0.4375835283638218	0.15954349749966998	-0.3395337080405194	0.4669031735213369	0.39523895490496047	-0.2129652279843578	0.463467224258422	0.475335578007995	-0.0012822993261856408	0.3986344994620431	0.4440631926215212	0.07649924521513476	0.39990697002721737	0.47243837242619013	0.09166696630234956	0.3992983241151213	0.5291974484602058	0.08374530284632023	0.14774709372729777	0.03869938350168414	-0.3015733568783773	0.024964195387069302	0.1642945732664114	-0.10814396493284446	-0.03379226387509632	0.25330690273084766	0.09870938838644981	-0.023906942655459944	0.36568463423292386	0.16213814787254768	-0.043782125086825184	0.3762099644817435	0.18547818674469185	-0.055876280590826506	0.35573113210318935	0.182753596861725
470	7.833333333333333	0.3424071053895582	0.32250351742434297	0.10723270844659184	0.32096797353156004	0.5450748446362736	0.5222313859790463	0.27372717281784636	0.7613649206339625	0.9117897039546204	0.26374467098778615	0.6050688916249525	1.0063272250220552	0.3295252711733997	0.6217350702549345	0.9932274170440648	0.2315867085733469	0.8996805922731383	0.9644272412435598	0.15387881341546	0.260872953049202	0.11734413136709901	0.1464520144737162	0.448127921492798	0.5277213122798621	0.09166671266798068	0.7663510003972976	0.9287157116516385	0.11167912961810875	0.5608053757205177	0.9897540812406955	0.0723652842184259	0.596406960194306	0.9852133021045981	0.08220850194800933	0.8431999520243423	0.9642769844324657	0.3110452733056093	0.048223690036768435	-0.37542594483266895	0.34132113005588205	-0.19099594346862955	-0.5172232900180094	0.32792713806223256	-0.1433057633816383	-0.3925228677022691	0.4406590166356095	0.16234420650957837	-0.34072506001227126	0.4678803569120141	0.378389798032166	-0.20025461775332865	0.46640399869389737	0.4688024933285358	0.017704473139629716	0.4013859966598869	0.4528667503967656	0.1026991511959732	0.40188144388376384	0.4780242217958509	0.1212588053545948	0.4006672544565584	0.5148350340502705	0.11235687514834612	0.14874054153790725	0.039459135447184525	-0.30080512983313296	0.04088337575915592	0.1539692107079456	-0.09678142599912304	-0.026940102421102924	0.258591603468304	0.11043501277227115	-0.02764082968584449	0.3781032532381584	0.17456775438021546	-0.047977683067222936	0.38382951718394104	0.20236385918421537	-0.05600820051189466	0.3651348663331609	0.19864823235580598
